<svg xmlns="http://www.w3.org/2000/svg" viewBox="0 0 128 128" role="img" aria-label="StudyHub logo">
  <defs>
    <linearGradient id="capTop" x1="0" y1="0" x2="1" y2="1">
      <stop offset="0" stop-color="#2195d7"/>
      <stop offset="1" stop-color="#4cbcf2"/>
    </linearGradient>
    <linearGradient id="capBase" x1="0" y1="0" x2="0" y2="1">
      <stop offset="0" stop-color="#1c8fce"/>
      <stop offset="1" stop-color="#1378b6"/>
    </linearGradient>
    <linearGradient id="tassel" x1="0" y1="0" x2="0" y2="1">
      <stop offset="0" stop-color="#7ad9ff"/>
      <stop offset="1" stop-color="#4bbde9"/>
    </linearGradient>
  </defs>

  <path d="M64 16 10 44l54 28 54-28Z" fill="url(#capTop)"/>
  <path d="M20 49v18c0 18 20 31 44 31s44-13 44-31V49L64 72Z" fill="url(#capBase)"/>

  <path d="M86 47c2.2-2.2 5.8-2.2 8 0s2.2 5.8 0 8L90 59v26.5c0 3.1-2.5 5.5-5.5 5.5S79 88.6 79 85.5V55.3Z" fill="url(#tassel)"/>
  <circle cx="84.5" cy="97.5" r="8.5" fill="url(#tassel)"/>
</svg>
